# xmcd CD database file
#
# Track frame offsets:
#	150
#	29292
#	49615
#	88500
#	103205
#	137187
#	148392
#	172730
#	208477
#	232207
#	255627
#	302400
#
# Disc length: 4404 seconds
#
# Revision: 3
# Processed by: cddbd v1.5.2PL0 Copyright (c) Steve Scherf et al.
# Submitted via: CDex 1.70beta2
#
DISCID=ae11320c
DTITLE=Monk Thelonious - Monk's Dream
DYEAR=1963
DGENRE=Jazz Oldies
TTITLE0=Monk's Dream (Take 8)
TTITLE1=Body And Soul (Re-take 2)
TTITLE2=Bright Mississippi (Take 1)
TTITLE3=Blues Five Spot
TTITLE4=Blue Bolivar Blues (Take 2)
TTITLE5=Just A Gigolo
TTITLE6=Bye-Ya
TTITLE7=Sweet And Lovely
TTITLE8=Monk's Dream (Take 3)
TTITLE9=Body And Soul
TTITLE10=Bright Mississippi (Take 3)
TTITLE11=Blue Bolivar Blues
EXTD=YEAR: 1963
EXTT0=
EXTT1=
EXTT2=
EXTT3=
EXTT4=
EXTT5=
EXTT6=
EXTT7=
EXTT8=
EXTT9=
EXTT10=
EXTT11=
PLAYORDER=
